<?xml version="1.0" encoding="iso-8859-1"?>
<!-- Generator: Adobe Illustrator 19.0.0, SVG Export Plug-In . SVG Version: 6.00 Build 0)  -->
<svg version="1.1" id="Capa_1" xmlns="http://www.w3.org/2000/svg" xmlns:xlink="http://www.w3.org/1999/xlink" x="0px" y="0px"
	 viewBox="0 0 459.519 459.519" style="enable-background:new 0 0 459.519 459.519;" xml:space="preserve">
<g>
	<path d="M23.02,426.738c14.569,20.106,31.47,21.854,36.423,21.854c0,0,0.291,0,0.583,0h32.927
		c19.523,0,36.423-16.026,36.423-35.549v-191.15c0-19.523-16.901-35.258-36.423-35.258H59.735c-0.874,0-2.04,0-2.914,0.291
		c-2.04,0.291-5.536,1.166-9.616,3.497c19.523-82.754,93.827-144.528,182.409-144.528c87.999,0,162.012,60.9,182.117,142.78
		c-5.245-1.748-9.324-2.04-11.364-2.04c0,0-0.291,0-0.583,0h-32.927c-19.523,0-36.132,15.735-36.132,35.258v191.15
		c0,19.523,16.609,35.549,36.132,35.549h33.218c0.874,0,2.04-0.291,2.914-0.291c9.324-1.748,56.529-16.026,56.529-135.787
		c0-29.722-2.914-54.198-8.742-73.721c0.583-1.748,0.874-3.497,0.874-5.536c0-122.674-99.655-222.329-222.329-222.329
		S6.993,110.582,6.993,233.256c0,3.497,1.166,6.993,2.914,9.616C4.079,262.103,0,288.037,0,322.712
		C0,370.791,7.576,405.758,23.02,426.738z M396.579,413.917h-30.013c-0.291,0-1.166-0.583-1.166-0.583v-191.15
		c0-0.291,0.874-0.291,1.166-0.291h33.218c6.702,0,24.768,20.397,24.768,91.204C424.552,393.228,401.824,411.003,396.579,413.917z
		 M62.648,221.601h30.013c0.291,0,1.457,0.291,1.457,0.291v191.15c0,0.291-1.457,0.583-1.457,0.583H59.735
		c-6.702-2.914-24.768-20.397-24.768-91.204C34.967,242.289,57.403,224.514,62.648,221.601z"/>
</g>
<g>
</g>
<g>
</g>
<g>
</g>
<g>
</g>
<g>
</g>
<g>
</g>
<g>
</g>
<g>
</g>
<g>
</g>
<g>
</g>
<g>
</g>
<g>
</g>
<g>
</g>
<g>
</g>
<g>
</g>
</svg>
