<svg width="65" height="42" viewBox="0 0 65 42" fill="none" xmlns="http://www.w3.org/2000/svg">
<path d="M0 40.5009H12.732V24.6949H14.026C16.068 24.6949 17.303 26.1969 21.24 33.4759L24.922 40.2789L32.001 40.3999C35.894 40.4669 39.077 40.4029 39.077 40.2589C39.077 38.0339 31.143 25.1949 28.941 23.8569L27.734 23.1229L30.17 21.8489C39.201 17.1209 37.491 3.57586 27.594 1.45286C26.345 1.18586 20.02 0.985858 12.71 0.985858H0V40.5009ZM21.505 9.89486C25.977 12.1559 23.01 16.3299 16.676 16.6899L12.733 16.9149V9.32986L16.575 9.33586C18.774 9.33886 20.881 9.57786 21.505 9.89286V9.89486Z" fill="black"/>
<path d="M41.562 0.734858C34.635 2.34386 31.195 5.99386 31.161 11.7709C31.122 18.4979 34.89 21.5869 46.973 24.7369C52.846 26.2669 54.842 28.9189 52.064 31.4949C48.911 34.4169 42.741 32.5219 41.964 28.3899C41.579 26.3279 41.598 26.3339 35.127 26.6939L31.392 27.0119L31.668 28.8179C32.093 31.6019 32.39 35.8999 34.348 37.5759C40.15 42.5399 55.53 42.327 61 37C61 37 64.5 34.1357 64.5 28.8179C64.5 23.5 63.402 22 61.5 20C59.598 18 57.346 16.0349 49.783 14.1619C42.746 12.4179 41.306 11.1949 43.671 8.96986C45.921 6.85486 50.82 8.22486 51.923 11.2789C52.57 13.0679 52.452 13.0509 59.933 12.5559L64.259 12.2689L63.983 10.5449C62.706 2.55786 52.654 -1.84114 41.559 0.737858L41.562 0.734858Z" fill="black"/>
</svg>
