<svg width="96" height="96" viewBox="0 0 96 96" fill="none" xmlns="http://www.w3.org/2000/svg">
<path fill-rule="evenodd" clip-rule="evenodd" d="M48 96C74.5098 96 96 74.5096 96 48C96 21.4904 74.5098 0 48 0C21.4902 0 0 21.4904 0 48C0 74.5096 21.4902 96 48 96ZM58.4014 27.7349C54.8181 28.5671 52.168 29.9456 50.4397 31.8821C49.0288 30.2411 47.0669 28.9974 44.594 28.467C43.345 28.2 37.02 28 29.71 28H17V67.515H29.7319V51.709H31.0259C33.0679 51.709 34.303 53.2111 38.24 60.49L41.9219 67.293L49.001 67.4141C52.894 67.481 56.0769 67.417 56.0769 67.2729C56.0769 67.2098 56.0706 67.1382 56.0581 67.0586C63.1387 69.2125 73.5442 68.1829 77.8394 64C77.8394 64 81.3394 61.1357 81.3394 55.8179C81.3394 50.5 80.2415 49 78.3394 47C76.4375 45 74.1853 43.0349 66.6223 41.1619C59.5852 39.4178 58.1453 38.1948 60.5103 35.9698C62.7603 33.8549 67.6594 35.2249 68.7622 38.2788C68.8555 38.5366 68.9329 38.757 69.0193 38.9437C69.0969 39.1113 69.1819 39.252 69.2925 39.3684C69.9014 40.0107 71.2849 39.9192 76.4768 39.5754L76.7725 39.5559L81.0984 39.2688L80.8225 37.5448C79.5454 29.5579 69.4934 25.1588 58.3982 27.7379L58.4014 27.7349ZM47.1699 48.863C48.6152 48.1063 49.7854 47.1239 50.6909 45.9987C53.0593 48.2998 57.1851 50.0092 63.8123 51.7368C69.6853 53.2668 71.6814 55.9188 68.9033 58.4949C65.7502 61.4169 59.5803 59.5219 58.8032 55.3899L58.8003 55.3734C58.6809 54.735 58.5991 54.2965 58.3469 54.0063C57.7937 53.3698 56.4202 53.4462 52.0334 53.6902L51.9663 53.6938L48.6658 53.9749C47.5227 52.4021 46.5281 51.2278 45.9409 50.871L44.7339 50.137L47.1699 48.863ZM38.5049 36.9091C42.9771 39.17 40.01 43.344 33.676 43.704L29.7329 43.929V36.344L33.575 36.35C35.7739 36.353 37.8811 36.592 38.5049 36.907V36.9091Z" fill="white"/>
</svg>
