<svg width="92" height="92" viewBox="0 0 92 92" fill="none" xmlns="http://www.w3.org/2000/svg">
<path fill-rule="evenodd" clip-rule="evenodd" d="M46 92C71.405 92 92 71.4052 92 46C92 20.5948 71.405 0 46 0C20.595 0 0 20.5948 0 46C0 71.4052 20.595 92 46 92ZM56.4014 25.7349C52.8181 26.5671 50.168 27.9456 48.4397 29.8821C47.0288 28.2411 45.0669 26.9974 42.594 26.467C41.345 26.2 35.02 26 27.71 26H15V65.515H27.7319V49.709H29.0259C31.0679 49.709 32.303 51.2111 36.24 58.49L39.9219 65.293L47.001 65.4141C50.894 65.481 54.0769 65.417 54.0769 65.2729C54.0769 65.2098 54.0706 65.1382 54.0581 65.0586C61.1387 67.2125 71.5442 66.1829 75.8394 62C75.8394 62 79.3394 59.1357 79.3394 53.8179C79.3394 48.5 78.2415 47 76.3394 45C74.4375 43 72.1853 41.0349 64.6223 39.1619C57.5852 37.4178 56.1453 36.1948 58.5103 33.9698C60.7603 31.8549 65.6594 33.2249 66.7622 36.2788C66.9392 36.7679 67.0588 37.1221 67.2925 37.3684C67.9014 38.0107 69.2849 37.9192 74.4768 37.5754L74.7725 37.5559L79.0984 37.2688L78.8225 35.5448C77.5454 27.5579 67.4934 23.1588 56.3982 25.7379L56.4014 25.7349ZM45.1699 46.863C46.6152 46.1063 47.7854 45.1239 48.6909 43.9987C51.0593 46.2998 55.1851 48.0092 61.8123 49.7368C67.6853 51.2668 69.6814 53.9188 66.9033 56.4949C63.7502 59.4169 57.5803 57.5219 56.8032 53.3899L56.8003 53.3734C56.6809 52.735 56.5991 52.2965 56.3469 52.0063C55.7937 51.3698 54.4202 51.4462 50.0334 51.6902L49.9663 51.6938L46.6658 51.9749C45.5227 50.4021 44.5281 49.2278 43.9409 48.871L42.7339 48.137L45.1699 46.863ZM36.5049 34.9091C40.9771 37.17 38.01 41.344 31.676 41.704L27.7329 41.929V34.344L31.575 34.35C33.7739 34.353 35.8811 34.592 36.5049 34.907V34.9091Z" fill="white"/>
</svg>
